<?xml version="1.0" encoding="UTF-8" standalone="no"?>
<svg
   id="svg8"
   version="1.1"
   viewBox="0 0 56.515211 35.738823"
   height="135.07587"
   width="213.6008">
  <g
     transform="matrix(0.27962674,0,0,0.2580733,-9.623184,-23.818127)"
     id="layer1"
     style="fill:#070707;fill-opacity:1;stroke:#000000;stroke-width:9.84921455;stroke-linecap:round;stroke-linejoin:round;stroke-miterlimit:4;stroke-dasharray:none;stroke-opacity:1;paint-order:normal">
    <path
       id="path4321"
       d="m 39.864801,98.429379 c -0.749842,1.095943 -0.749842,1.557428 0.288194,4.210801 6.114276,15.51643 49.260364,121.93953 49.721796,122.45866 0.40358,0.57681 3.57629,0.74989 12.228549,0.74989 10.38277,0 11.76712,-0.11538 12.51702,-1.0383 0.46154,-0.51897 5.30674,-12.17086 10.78651,-25.78382 5.47976,-13.6706 10.03667,-24.8609 10.152,-24.97623 0.0579,-0.0575 4.61454,10.95953 10.09436,24.51479 5.42207,13.55527 10.26738,25.2647 10.72881,26.01454 0.80754,1.26902 1.03831,1.26902 12.57466,1.26902 8.70995,0 11.8825,-0.17281 12.34394,-0.74989 0.63451,-0.74984 50.29861,-124.70829 50.29861,-125.515826 0,-0.288194 -0.40358,-0.980611 -0.92292,-1.442044 -0.74984,-0.807534 -2.76871,-0.922919 -13.38219,-0.922919 -6.86417,0 -12.80537,0.230771 -13.20916,0.46154 -0.40358,0.23077 -8.47924,19.727229 -17.93909,43.319169 l -17.24689,42.85762 -2.94178,-7.15253 c -1.55737,-3.92238 -9.28677,-23.0728 -17.13149,-42.56927 -7.84474,-19.49646 -14.53589,-35.820478 -14.82429,-36.224219 -0.46154,-0.518964 -3.86465,-0.692202 -13.49752,-0.692202 -10.9019,0 -12.97845,0.115384 -13.72834,0.922918 -0.51897,0.46154 -0.92287,1.153636 -0.92287,1.442044 0,0.346155 3.40321,9.056059 7.55632,19.323439 l 7.55632,18.80432 -9.40216,23.01506 c -5.13366,12.69004 -9.40215,22.95742 -9.45985,22.89973 -0.11538,-0.11539 -7.72934,-18.97734 -17.016112,-41.99246 -9.229134,-23.01506 -17.189247,-42.39619 -17.65068,-43.146031 -0.807534,-1.26902 -0.980611,-1.26902 -13.785981,-1.26902 -12.516961,0 -12.920755,0.05742 -13.785981,1.211327 z"
       style="fill:#070707;fill-opacity:1;stroke:#000000;stroke-width:9.84921455;stroke-linecap:round;stroke-linejoin:round;stroke-miterlimit:4;stroke-dasharray:none;stroke-opacity:1;paint-order:normal"
    />
  </g>
</svg>
